<?xml version="1.0" encoding="utf-8"?>
<!-- Generator: Adobe Illustrator 17.0.0, SVG Export Plug-In . SVG Version: 6.00 Build 0)  -->
<!DOCTYPE svg PUBLIC "-//W3C//DTD SVG 1.1//EN" "http://www.w3.org/Graphics/SVG/1.1/DTD/svg11.dtd">
<svg version="1.1" id="s1" xmlns="http://www.w3.org/2000/svg" xmlns:xlink="http://www.w3.org/1999/xlink" x="0px" y="0px"
	 width="200px" height="200px" viewBox="200 200 200 200" enable-background="new 200 200 200 200" xml:space="preserve">
<g id="l1" transform="translate(-187.14286,-110.93358)">
	<path id="p1" d="M487.143,349.993c2.877-0.007,5.754,0.169,8.123,0.508l-3.702,30.8c7.781,1.135,14.604,5.207,19.314,11.064
		l24.708-18.531c3.001,3.739,6.404,9.604,8.187,14.046l-28.389,12.142c1.427,3.525,2.221,7.367,2.221,11.402
		c0,3.887-0.723,7.602-2.052,11.021l28.156,12.037c-1.737,4.469-5.104,10.323-8.06,14.089L511.11,430.21
		c-4.704,5.99-11.604,10.173-19.483,11.339l3.639,30.293c-4.739,0.73-11.508,0.719-16.246,0.042l3.638-30.335
		c-7.884-1.166-14.779-5.363-19.483-11.36L438.7,448.55c-3.001-3.739-6.404-9.604-8.187-14.046l28.22-12.079
		c-1.325-3.414-2.052-7.12-2.052-11c0-4.042,0.79-7.893,2.221-11.423l-28.325-12.1c1.737-4.469,5.104-10.323,8.06-14.089
		l24.771,18.552c4.71-5.856,11.532-9.929,19.314-11.064l-3.702-30.758C481.389,350.179,484.266,350,487.143,349.993z"/>
</g>
</svg>
