<?xml version="1.0" encoding="utf-8"?>
<!-- Generator: Adobe Illustrator 17.0.0, SVG Export Plug-In . SVG Version: 6.00 Build 0)  -->
<!DOCTYPE svg PUBLIC "-//W3C//DTD SVG 1.1//EN" "http://www.w3.org/Graphics/SVG/1.1/DTD/svg11.dtd">
<svg version="1.1" id="s1" xmlns="http://www.w3.org/2000/svg" xmlns:xlink="http://www.w3.org/1999/xlink" x="0px" y="0px"
	 width="200px" height="200px" viewBox="200 200 200 200" enable-background="new 200 200 200 200" xml:space="preserve">
<g id="l1" transform="translate(-187.14286,-110.93358)">
	<path id="p1" fill="white" d="M487.143,312.934c-54.372,0-98.5,44.128-98.5,98.5s44.128,98.5,98.5,98.5c54.372,0,98.5-44.128,98.5-98.5
		S541.515,312.934,487.143,312.934z M482.494,321.1c0.055-0.003,0.112,0.003,0.168,0l0.419,6.68
		c-5.681,0.271-11.211,1.099-16.542,2.45l1.654,6.512c-13.994,3.545-26.459,10.914-36.226,20.94l-4.795-4.69
		c-3.9,4.001-7.387,8.396-10.428,13.108l-5.612-3.706C426.459,338.695,452.566,322.619,482.494,321.1z M491.624,321.1
		c29.998,1.467,56.174,17.551,71.53,41.293l-5.612,3.706c-3.034-4.7-6.518-9.095-10.407-13.087l-4.795,4.67
		c-9.768-10.031-22.247-17.394-36.247-20.94l1.654-6.512c-5.331-1.351-10.861-2.179-16.542-2.45L491.624,321.1z M406.651,370.141
		l6.031,2.973c-2.544,4.931-4.623,10.137-6.156,15.579l6.449,1.822c-1.875,6.654-2.89,13.668-2.89,20.919
		c0,7.258,1.011,14.28,2.89,20.94l-6.449,1.822c1.532,5.433,3.616,10.635,6.156,15.558l-6.031,2.973
		c-6.369-12.382-9.967-26.419-9.967-41.293C396.684,396.56,400.282,382.523,406.651,370.141z M567.635,370.141
		c6.369,12.382,9.967,26.419,9.967,41.293c0,14.874-3.598,28.911-9.967,41.293l-6.031-2.973c2.541-4.925,4.624-10.123,6.156-15.558
		l-6.449-1.822c1.878-6.659,2.89-13.682,2.89-20.94c0-7.251-1.015-14.265-2.89-20.919l6.449-1.822
		c-1.533-5.44-3.614-10.649-6.156-15.579L567.635,370.141z M416.744,456.768c3.042,4.712,6.528,9.107,10.428,13.108l4.795-4.69
		c9.767,10.025,22.231,17.395,36.226,20.94l-1.654,6.512c5.331,1.351,10.861,2.179,16.542,2.45l-0.419,6.68
		c-29.998-1.467-56.174-17.551-71.53-41.293L416.744,456.768z M557.563,456.768l5.591,3.706
		c-15.355,23.742-41.532,39.826-71.53,41.293l-0.419-6.68c5.681-0.271,11.211-1.099,16.542-2.45l-1.654-6.512
		c13.999-3.546,26.478-10.909,36.247-20.94l4.795,4.67C551.029,465.858,554.525,461.475,557.563,456.768z"/>
</g>
</svg>
